<svg width="26" height="29" viewBox="0 0 26 29" fill="none" xmlns="http://www.w3.org/2000/svg">
<path d="M5.97 4.91992C3.22 4.91992 1 7.14992 1 9.88992V22.3599C1 25.1099 3.23 27.3299 5.97 27.3299H15.24C17.63 27.3299 19.63 25.6499 20.1 23.3999" stroke="#476288" stroke-width="1.6" stroke-linejoin="round"/>
<path d="M24.8497 10.06V18.44C24.8497 18.51 24.8497 18.58 24.8397 18.65C24.7397 21.22 22.6597 23.3 20.0897 23.4C20.0197 23.41 19.9497 23.41 19.8797 23.41H10.6096C10.5396 23.41 10.4697 23.41 10.3997 23.4C7.82966 23.3 5.74966 21.22 5.64966 18.65C5.63966 18.58 5.63965 18.51 5.63965 18.44V5.97C5.63965 5.9 5.63966 5.83 5.64966 5.76C5.74966 3.21 7.75965 1.16 10.2997 1.01C10.3997 0.999998 10.5096 1 10.6096 1H15.5097C16.7297 1 17.3497 0.999999 17.8997 1.21C18.4597 1.43 18.9197 1.84 19.8197 2.67L22.7496 5.33C23.7796 6.26 24.2997 6.74 24.5797 7.36C24.8497 7.98 24.8497 8.68 24.8497 10.07V10.06Z" stroke="#476288" stroke-width="1.6" stroke-linejoin="round"/>
</svg>
