<svg width="42" height="42" viewBox="0 0 42 42" fill="none" xmlns="http://www.w3.org/2000/svg">
<mask id="mask0_117_3713" style="mask-type:alpha" maskUnits="userSpaceOnUse" x="5" y="1" width="32" height="40">
<path fill-rule="evenodd" clip-rule="evenodd" d="M10.5 8.75C10.0359 8.75 9.59075 8.93437 9.26256 9.26256C8.93437 9.59075 8.75 10.0359 8.75 10.5V35C8.75 35.4641 8.93437 35.9092 9.26256 36.2374C9.59075 36.5656 10.0359 36.75 10.5 36.75H31.5C31.9641 36.75 32.4092 36.5656 32.7374 36.2374C33.0656 35.9092 33.25 35.4641 33.25 35V10.5C33.25 10.0359 33.0656 9.59075 32.7374 9.26256C32.4092 8.93437 31.9641 8.75 31.5 8.75H28C27.0335 8.75 26.25 7.9665 26.25 7C26.25 6.0335 27.0335 5.25 28 5.25H31.5C32.8924 5.25 34.2277 5.80312 35.2123 6.78769C36.1969 7.77225 36.75 9.10761 36.75 10.5V35C36.75 36.3924 36.1969 37.7277 35.2123 38.7123C34.2277 39.6969 32.8924 40.25 31.5 40.25H10.5C9.10761 40.25 7.77225 39.6969 6.78769 38.7123C5.80312 37.7277 5.25 36.3924 5.25 35V10.5C5.25 9.10761 5.80312 7.77226 6.78769 6.78769C7.77226 5.80312 9.10761 5.25 10.5 5.25H14C14.9665 5.25 15.75 6.0335 15.75 7C15.75 7.9665 14.9665 8.75 14 8.75H10.5Z" fill="#1F2F42"/>
<path fill-rule="evenodd" clip-rule="evenodd" d="M12.25 5.25C12.25 3.317 13.817 1.75 15.75 1.75H26.25C28.183 1.75 29.75 3.317 29.75 5.25V8.75C29.75 10.683 28.183 12.25 26.25 12.25H15.75C13.817 12.25 12.25 10.683 12.25 8.75V5.25ZM26.25 5.25H15.75V8.75H26.25V5.25Z" fill="#1F2F42"/>
</mask>
<g mask="url(#mask0_117_3713)">
<rect width="42" height="42" fill="#5D738D"/>
</g>
</svg>
