<svg width="46" height="34" viewBox="0 0 46 34" fill="none" xmlns="http://www.w3.org/2000/svg">
<path d="M20.2407 32.7032C20.1833 32.7032 20.1265 32.7081 20.071 32.7177H10.2416C10.0212 32.7177 9.81215 32.5264 9.81215 32.2675V29.9038C9.81215 29.6676 9.72851 29.439 9.57605 29.2585L2.37868 20.739L2.37681 20.7368C1.63951 19.8692 1.23535 18.7583 1.23535 17.6068V4.71513C1.23535 3.81361 1.57785 2.97396 2.20234 2.346L2.20237 2.34603L2.20853 2.33973C2.82706 1.70671 3.64803 1.36475 4.52375 1.36475C5.39947 1.36475 6.22044 1.70671 6.83897 2.33973L6.83897 2.33974L6.84206 2.34287C7.46502 2.97484 7.81215 3.8174 7.81215 4.71513V10.5736C7.81215 10.895 7.9666 11.1968 8.22727 11.3848C8.48794 11.5727 8.82306 11.624 9.12798 11.5225C9.49498 11.4003 9.8672 11.3344 10.2416 11.3344C11.1663 11.3344 12.0306 11.6973 12.6785 12.3602L12.6784 12.3602L12.6814 12.3633L19.2856 19.0628C19.7295 19.5132 20.0713 20.0334 20.3078 20.6153C20.5459 21.2011 20.6702 21.8274 20.6702 22.4574V32.253C20.6702 32.5119 20.4612 32.7032 20.2407 32.7032Z" stroke="#5D738D" stroke-width="2" stroke-linejoin="round"/>
<path d="M37.0649 11.5324C37.3707 11.639 37.7093 11.591 37.9733 11.4034C38.2373 11.2158 38.3942 10.912 38.3942 10.5881V4.71513C38.3942 3.81361 38.7367 2.97396 39.3612 2.346L39.3643 2.34287C39.9918 1.7063 40.8148 1.36475 41.6897 1.36475C42.5655 1.36475 43.3864 1.70671 44.005 2.33974L44.008 2.34287C44.631 2.97484 44.9781 3.8174 44.9781 4.71513V17.6068C44.9781 18.7583 44.574 19.8692 43.8367 20.7368L43.8348 20.739L36.6374 29.2585C36.485 29.439 36.4013 29.6676 36.4013 29.9038V32.2675C36.4013 32.5264 36.1923 32.7177 35.9719 32.7177H25.9656C25.7452 32.7177 25.5361 32.5264 25.5361 32.2675V22.4719C25.5361 21.8353 25.6602 21.2162 25.8985 20.6298C26.1347 20.0487 26.4834 19.521 26.9208 19.0773L33.5249 12.3778C34.1823 11.7108 35.0488 11.3489 35.9647 11.3489C36.3487 11.3489 36.716 11.4107 37.0649 11.5324Z" stroke="#5D738D" stroke-width="2" stroke-linejoin="round"/>
</svg>
