<svg width="39" height="39" viewBox="0 0 39 39" fill="none" xmlns="http://www.w3.org/2000/svg">
<mask id="mask0_117_3714" style="mask-type:alpha" maskUnits="userSpaceOnUse" x="1" y="3" width="38" height="34">
<path fill-rule="evenodd" clip-rule="evenodd" d="M24.2339 4.0545C25.5157 3.52337 26.8896 3.25 28.2771 3.25C29.6646 3.25 31.0385 3.52337 32.3203 4.0545C33.6019 4.58552 34.7664 5.36381 35.7471 6.3449C36.7282 7.32567 37.507 8.49064 38.0381 9.77223C38.5692 11.054 38.8426 12.428 38.8426 13.8155C38.8426 15.203 38.5692 16.5769 38.0381 17.8587C37.507 19.1404 36.7286 20.3049 35.7474 21.2858C35.7473 21.2859 35.7475 21.2857 35.7474 21.2858L21.3824 35.6508C20.7478 36.2854 19.7189 36.2854 19.0843 35.6508L4.7193 21.2858C2.73805 19.3045 1.625 16.6174 1.625 13.8155C1.625 11.0136 2.73805 8.32641 4.7193 6.34517C6.70055 4.36392 9.38769 3.25087 12.1896 3.25087C14.9915 3.25087 17.6786 4.36392 19.6599 6.34517L20.2333 6.91862L20.8065 6.34544C20.8064 6.34553 20.8066 6.34535 20.8065 6.34544C21.7874 5.36422 22.9522 4.58557 24.2339 4.0545ZM28.2771 6.5C27.3165 6.5 26.3653 6.68926 25.4779 7.05696C24.5905 7.42466 23.7842 7.9636 23.1052 8.643L21.3824 10.3658C20.7478 11.0004 19.7189 11.0004 19.0843 10.3658L17.3618 8.64327C15.99 7.27151 14.1295 6.50087 12.1896 6.50087C10.2496 6.50087 8.38915 7.27151 7.0174 8.64327C5.64564 10.015 4.875 11.8755 4.875 13.8155C4.875 15.7554 5.64564 17.6159 7.0174 18.9877L20.2333 32.2036L33.4493 18.9877C34.1287 18.3086 34.6679 17.502 35.0356 16.6146C35.4033 15.7272 35.5926 14.776 35.5926 13.8155C35.5926 12.8549 35.4033 11.9037 35.0356 11.0163C34.6679 10.1289 34.129 9.32261 33.4496 8.64354C32.7705 7.96414 31.9637 7.42466 31.0763 7.05696C30.1888 6.68926 29.2377 6.5 28.2771 6.5Z" fill="#1F2F42"/>
</mask>
<g mask="url(#mask0_117_3714)">
<rect width="39" height="39" fill="#5D738D"/>
</g>
</svg>
