<svg width="27" height="29" viewBox="0 0 27 29" fill="none" xmlns="http://www.w3.org/2000/svg">
<path d="M20.72 27.3125H5.55C3.04 27.3125 1 25.2725 1 22.7625V11.9425C1 10.6025 1.59 9.3225 2.62 8.4625L10.2 2.0725C11.9 0.6425 14.37 0.6425 16.07 2.0725L23.65 8.4625C24.68 9.3325 25.27 10.6025 25.27 11.9425V22.7625C25.27 25.2725 23.23 27.3125 20.72 27.3125Z" stroke="#476288" stroke-width="1.6" stroke-miterlimit="10"/>
<path d="M11.6899 18.2324H14.6899C15.9499 18.2324 16.9699 19.2524 16.9699 20.5124V27.3124H9.41992V20.5124C9.41992 19.2524 10.4399 18.2324 11.6999 18.2324H11.6899Z" stroke="#476288" stroke-width="1.6" stroke-miterlimit="10"/>
</svg>
