<svg width="49" height="48" viewBox="0 0 49 48" fill="none" xmlns="http://www.w3.org/2000/svg">
<mask id="mask0_117_3712" style="mask-type:alpha" maskUnits="userSpaceOnUse" x="4" y="2" width="41" height="44">
<path fill-rule="evenodd" clip-rule="evenodd" d="M23.2462 2.4213C23.9835 1.85957 25.0159 1.85957 25.7531 2.4213L44.1281 16.4213C44.6255 16.8002 44.9163 17.3828 44.9163 18V40C44.9163 41.5913 44.271 43.1174 43.1224 44.2426C41.9737 45.3679 40.4158 46 38.7913 46H10.208C8.58356 46 7.02564 45.3679 5.87698 44.2426C4.72832 43.1174 4.08301 41.5913 4.08301 40V18C4.08301 17.3828 4.37389 16.8002 4.87121 16.4213L23.2462 2.4213ZM8.16634 18.9782V40C8.16634 40.5304 8.38144 41.0391 8.76433 41.4142C9.14722 41.7893 9.66653 42 10.208 42H38.7913C39.3328 42 39.8521 41.7893 40.235 41.4142C40.6179 41.0391 40.833 40.5304 40.833 40V18.9782L24.4997 6.53372L8.16634 18.9782Z" fill="#1F2F42"/>
<path fill-rule="evenodd" clip-rule="evenodd" d="M16.333 24C16.333 22.8954 17.2471 22 18.3747 22H30.6247C31.7523 22 32.6663 22.8954 32.6663 24V44C32.6663 45.1046 31.7523 46 30.6247 46C29.4971 46 28.583 45.1046 28.583 44V26H20.4163V44C20.4163 45.1046 19.5023 46 18.3747 46C17.2471 46 16.333 45.1046 16.333 44V24Z" fill="#1F2F42"/>
</mask>
<g mask="url(#mask0_117_3712)">
<rect width="49" height="48" fill="#5D738D"/>
</g>
</svg>
