<svg width="45" height="44" viewBox="0 0 45 44" fill="none" xmlns="http://www.w3.org/2000/svg">
<circle cx="22.5" cy="22" r="22" fill="#644578" fill-opacity="0.1"/>
<g clip-path="url(#clip0_116_215)">
<path fill-rule="evenodd" clip-rule="evenodd" d="M16 18C16 14.6863 18.6863 12 22 12C25.3137 12 28 14.6863 28 18C28 20.0815 26.9401 21.9154 25.3305 22.9915C25.2735 23.021 25.2199 23.0558 25.1702 23.095C24.2504 23.6686 23.1639 24 22 24C18.6863 24 16 21.3137 16 18ZM24.9861 25.4241C24.0635 25.7955 23.0556 26 22 26C20.9448 26 19.9373 25.7957 19.015 25.4245L18.2645 31.0751L21.4855 29.1425C21.8022 28.9525 22.1978 28.9525 22.5145 29.1425L25.7359 31.0753L24.9861 25.4241ZM17.1395 24.3547C15.2308 22.8926 14 20.5901 14 18C14 13.5817 17.5817 10 22 10C26.4183 10 30 13.5817 30 18C30 20.5895 28.7697 22.8917 26.8617 24.3538L27.9913 32.8685C28.0418 33.2491 27.8699 33.625 27.549 33.8358C27.2281 34.0466 26.8148 34.055 26.4855 33.8575L22 31.1662L17.5145 33.8575C17.1852 34.0551 16.7719 34.0466 16.451 33.8358C16.13 33.625 15.9582 33.249 16.0087 32.8683L17.1395 24.3547Z" fill="#644578"/>
</g>
<defs>
<clipPath id="clip0_116_215">
<rect width="24" height="24" fill="white" transform="translate(10 10)"/>
</clipPath>
</defs>
</svg>
