<svg width="45" height="44" viewBox="0 0 45 44" fill="none" xmlns="http://www.w3.org/2000/svg">
<circle cx="22.5" cy="22" r="22" fill="#FAECEB" fill-opacity="0.5"/>
<mask id="mask0_116_207" style="mask-type:alpha" maskUnits="userSpaceOnUse" x="11" y="11" width="22" height="22">
<path fill-rule="evenodd" clip-rule="evenodd" d="M22 13C17.0294 13 13 17.0294 13 22C13 26.9706 17.0294 31 22 31C26.9706 31 31 26.9706 31 22C31 17.0294 26.9706 13 22 13ZM11 22C11 15.9249 15.9249 11 22 11C28.0751 11 33 15.9249 33 22C33 28.0751 28.0751 33 22 33C15.9249 33 11 28.0751 11 22Z" fill="#1F2F42"/>
<path fill-rule="evenodd" clip-rule="evenodd" d="M19.5281 17.1183C19.8533 16.9443 20.2478 16.9634 20.5547 17.168L26.5547 21.168C26.8329 21.3534 27 21.6656 27 22C27 22.3344 26.8329 22.6466 26.5547 22.8321L20.5547 26.8321C20.2478 27.0366 19.8533 27.0557 19.5281 26.8817C19.203 26.7077 19 26.3688 19 26V18C19 17.6312 19.203 17.2923 19.5281 17.1183ZM21 19.8685V24.1315L24.1972 22L21 19.8685Z" fill="#1F2F42"/>
</mask>
<g mask="url(#mask0_116_207)">
<rect x="10" y="10" width="24" height="24" fill="#DE8485"/>
</g>
</svg>
