<svg width="51" height="50" viewBox="0 0 51 50" fill="none" xmlns="http://www.w3.org/2000/svg">
<mask id="mask0_117_3715" style="mask-type:alpha" maskUnits="userSpaceOnUse" x="6" y="4" width="39" height="42">
<path fill-rule="evenodd" clip-rule="evenodd" d="M9.48699 32.2177C11.4796 30.2642 14.1821 29.1667 17 29.1667H34C36.8179 29.1667 39.5204 30.2642 41.513 32.2177C43.5056 34.1712 44.625 36.8207 44.625 39.5834V43.7501C44.625 44.9007 43.6736 45.8334 42.5 45.8334C41.3264 45.8334 40.375 44.9007 40.375 43.7501V39.5834C40.375 37.9258 39.7034 36.3361 38.5078 35.164C37.3123 33.9919 35.6908 33.3334 34 33.3334H17C15.3092 33.3334 13.6877 33.9919 12.4922 35.164C11.2966 36.3361 10.625 37.9258 10.625 39.5834V43.7501C10.625 44.9007 9.67361 45.8334 8.5 45.8334C7.32639 45.8334 6.375 44.9007 6.375 43.7501V39.5834C6.375 36.8207 7.49442 34.1712 9.48699 32.2177Z" fill="#1F2F42"/>
<path fill-rule="evenodd" clip-rule="evenodd" d="M25.5 8.33342C21.9792 8.33342 19.125 11.1316 19.125 14.5834C19.125 18.0352 21.9792 20.8334 25.5 20.8334C29.0208 20.8334 31.875 18.0352 31.875 14.5834C31.875 11.1316 29.0208 8.33342 25.5 8.33342ZM14.875 14.5834C14.875 8.83045 19.632 4.16675 25.5 4.16675C31.368 4.16675 36.125 8.83045 36.125 14.5834C36.125 20.3364 31.368 25.0001 25.5 25.0001C19.632 25.0001 14.875 20.3364 14.875 14.5834Z" fill="#1F2F42"/>
</mask>
<g mask="url(#mask0_117_3715)">
<rect width="51" height="50" fill="#5D738D"/>
</g>
</svg>
